<svg width="53" height="17" viewBox="0 0 53 17" fill="none" xmlns="http://www.w3.org/2000/svg">
<path d="M28.1247 4.56553C28.1247 5.15181 27.655 5.62389 27.0722 5.62389C26.4895 5.62389 26.0202 5.15181 26.0202 4.56553C26.0202 3.97926 26.4734 3.50717 27.0722 3.50717C27.6715 3.52344 28.1247 3.99569 28.1247 4.56553ZM23.7863 6.69884V6.95944C23.7863 6.95944 23.2847 6.30777 22.2163 6.30777C20.452 6.30777 19.0759 7.65942 19.0759 9.53196C19.0759 11.3884 20.4359 12.7561 22.2163 12.7561C23.3009 12.7561 23.7863 12.0885 23.7863 12.0885V12.3653C23.7863 12.4956 23.8837 12.593 24.013 12.593H25.324V6.47012H24.013C23.8837 6.4706 23.7863 6.5848 23.7863 6.69884ZM23.7863 10.623C23.5438 10.9814 23.058 11.2908 22.4753 11.2908C21.4394 11.2908 20.6461 10.6394 20.6461 9.53196C20.6461 8.42464 21.4394 7.77329 22.4753 7.77329C23.042 7.77329 23.5599 8.09897 23.7863 8.44091V10.623ZM26.2954 6.4706H27.8493V12.5935H26.2954V6.4706ZM49.5079 6.30761C48.4395 6.30761 47.9375 6.95928 47.9375 6.95928V3.52344H46.3837V12.5935H47.695C47.8245 12.5935 47.9214 12.4794 47.9214 12.3654V12.0887C47.9214 12.0887 48.4233 12.7563 49.4914 12.7563C51.256 12.7563 52.6318 11.3889 52.6318 9.53245C52.6318 7.67601 51.256 6.30761 49.5079 6.30761ZM49.2488 11.2744C48.6497 11.2744 48.1804 10.9653 47.9375 10.6067V8.42464C48.1804 8.09897 48.6984 7.75703 49.2488 7.75703C50.2848 7.75703 51.0779 8.40837 51.0779 9.51569C51.0779 10.623 50.2849 11.2744 49.2488 11.2744ZM45.5745 8.96228V12.6097H44.0203V9.14122C44.0203 8.13183 43.6966 7.72449 42.823 7.72449C42.3537 7.72449 41.868 7.96883 41.5599 8.3272V12.5936H40.0064V6.47077H41.2362C41.3657 6.47077 41.4629 6.5848 41.4629 6.69884V6.95944C41.9162 6.48703 42.515 6.30777 43.1138 6.30777C43.7938 6.30777 44.3604 6.50346 44.8137 6.89421C45.3638 7.35018 45.5745 7.9363 45.5745 8.96228ZM36.2342 6.30761C35.1661 6.30761 34.6642 6.95928 34.6642 6.95928V3.52344H33.1103V12.5935H34.4213C34.5508 12.5935 34.648 12.4794 34.648 12.3654V12.0887C34.648 12.0887 35.1499 12.7563 36.218 12.7563C37.9826 12.7563 39.3584 11.3889 39.3584 9.53245C39.3746 7.67585 37.9988 6.30761 36.2342 6.30761ZM35.9751 11.2744C35.3763 11.2744 34.9071 10.9653 34.6642 10.6067V8.42464C34.9071 8.09897 35.425 7.75703 35.9751 7.75703C37.0114 7.75703 37.8044 8.40837 37.8044 9.51569C37.8044 10.623 37.0114 11.2744 35.9751 11.2744ZM31.7667 6.30761C32.2359 6.30761 32.4788 6.38927 32.4788 6.38927V7.83836C32.4788 7.83836 31.1839 7.39865 30.3747 8.32703V12.6096H28.8205V6.4706H30.1318C30.2613 6.4706 30.3582 6.58464 30.3582 6.69867V6.95928C30.6499 6.61717 31.2812 6.30761 31.7667 6.30761ZM15.6283 12.0397C15.5474 11.8444 15.4664 11.6327 15.3855 11.4535C15.2559 11.1605 15.1263 10.8835 15.0133 10.623L14.9971 10.6067C13.88 8.16404 12.6824 5.68912 11.4196 3.24674L11.3711 3.1488C11.2383 2.89544 11.1089 2.64029 10.9829 2.38343C10.8208 2.09013 10.6591 1.78104 10.4001 1.48774C9.88211 0.836398 9.13743 0.478027 8.34441 0.478027C7.5349 0.478027 6.80657 0.836399 6.2726 1.45505C6.02972 1.74802 5.85151 2.05743 5.6898 2.35073C5.56347 2.60743 5.43404 2.86257 5.30154 3.11611L5.25287 3.21404C4.00641 5.65642 2.79246 8.1315 1.67554 10.574L1.65921 10.6064C1.54601 10.8674 1.41632 11.1441 1.28679 11.4369C1.20594 11.6161 1.12509 11.8115 1.04423 12.0231C0.833686 12.6255 0.768837 13.1955 0.850015 13.782C1.02806 15.0033 1.83725 16.0288 2.95433 16.4851C3.37526 16.6644 3.81236 16.7457 4.26547 16.7457C4.395 16.7457 4.55671 16.7295 4.6864 16.713C5.22069 16.648 5.77098 16.469 6.30527 16.1596C6.96892 15.785 7.60023 15.2478 8.3124 14.4662C9.02456 15.2478 9.67205 15.785 10.3195 16.1596C10.854 16.469 11.4041 16.648 11.9382 16.713C12.0678 16.7296 12.2298 16.7457 12.3593 16.7457C12.8126 16.7457 13.2657 16.6644 13.6703 16.4851C14.8036 16.0288 15.5966 14.9871 15.7748 13.782C15.9033 13.2121 15.8387 12.6424 15.6283 12.0397ZM8.32808 12.8865C7.45389 11.7791 6.88726 10.737 6.69321 9.85796C6.61235 9.48332 6.59602 9.15765 6.64469 8.86451C6.67687 8.60391 6.77422 8.37584 6.90375 8.18046C7.21132 7.74108 7.72928 7.46405 8.32825 7.46405C8.92738 7.46405 9.4615 7.72465 9.7529 8.18046C9.88243 8.37584 9.97946 8.60407 10.0121 8.86451C10.0605 9.15781 10.0443 9.49959 9.96345 9.85796C9.76859 10.7208 9.20196 11.763 8.32808 12.8865ZM14.7864 13.6518C14.6732 14.4986 14.1066 15.2316 13.3136 15.5572C12.9251 15.7199 12.5041 15.7689 12.0834 15.7199C11.6789 15.6709 11.2739 15.5406 10.8533 15.2966C10.2705 14.9706 9.6879 14.4662 9.00791 13.7169C10.0762 12.3981 10.7236 11.1929 10.9665 10.1184C11.0799 9.61346 11.0962 9.15765 11.0474 8.73405C10.9829 8.32704 10.837 7.9524 10.6104 7.62672C10.1083 6.89372 9.26648 6.4706 8.32792 6.4706C7.38936 6.4706 6.54751 6.91031 6.04572 7.62672C5.81917 7.9524 5.67331 8.32704 5.60862 8.73405C5.54394 9.15765 5.55995 9.62973 5.68948 10.1184C5.9322 11.1929 6.59586 12.4142 7.64794 13.7332C6.98428 14.4823 6.38531 14.9872 5.80251 15.3129C5.38158 15.5572 4.97715 15.6875 4.57256 15.7362C4.13562 15.7851 3.71453 15.7199 3.34228 15.5735C2.54926 15.2478 1.98263 14.5148 1.86943 13.6681C1.82092 13.2611 1.8531 12.8541 2.01513 12.3981C2.06348 12.2351 2.14466 12.0724 2.22551 11.8771C2.33887 11.6165 2.46808 11.3394 2.59777 11.0627L2.6141 11.0303C3.73086 8.60391 4.92864 6.12882 6.17509 3.71898L6.2236 3.62105C6.35329 3.37704 6.48283 3.11643 6.61219 2.8721C6.74172 2.61149 6.88726 2.36716 7.06546 2.15536C7.40537 1.76494 7.85848 1.55298 8.36042 1.55298C8.86237 1.55298 9.31548 1.76494 9.65539 2.15536C9.8336 2.36765 9.97913 2.61198 10.1087 2.8721C10.2383 3.11643 10.3679 3.37704 10.4971 3.62105L10.5458 3.71898C11.7732 6.13884 12.9551 8.58182 14.0907 11.0466V11.0629C14.2204 11.3238 14.3336 11.6166 14.4632 11.8776C14.544 12.0726 14.625 12.2353 14.6735 12.3983C14.8027 12.8212 14.8513 13.2286 14.7864 13.6518Z" fill="#718087"/>
</svg>
