<svg width="44" height="15" viewBox="0 0 44 15" fill="none" xmlns="http://www.w3.org/2000/svg">
<path d="M9.2452 7.30837C9.96463 7.36619 10.569 7.65528 11.087 8.20454C11.6049 8.75381 11.8639 9.50543 11.8639 10.4594C11.8639 11.6158 11.4898 12.5697 10.7128 13.2636C9.93586 13.9574 8.84231 14.3043 7.37466 14.3043H0.29541V0.601562H7.34589C8.58332 0.601562 9.59053 0.948466 10.3387 1.61337C11.087 2.30717 11.4611 3.20334 11.4611 4.33078C11.4611 5.19804 11.2308 5.86294 10.7416 6.38329C10.2524 6.90365 9.76319 7.16383 9.21642 7.22165L9.2452 7.30837ZM3.66237 6.26766H6.59767C7.08689 6.26766 7.48977 6.12312 7.80632 5.83403C8.0941 5.54494 8.26676 5.19804 8.26676 4.70659C8.26676 4.27296 8.12288 3.95497 7.8351 3.69479C7.54733 3.43461 7.17322 3.31898 6.74156 3.31898H3.66237V6.26766ZM6.77034 11.5869C7.28833 11.5869 7.71999 11.4423 8.00777 11.1821C8.29554 10.922 8.43943 10.5461 8.43943 10.0547C8.43943 9.59216 8.29554 9.24525 7.97899 8.98507C7.69122 8.7249 7.28833 8.58035 6.82789 8.58035H3.66237V11.5869H6.77034ZM23.5188 14.3043H20.267V13.3214C19.4612 14.1886 18.3964 14.6223 17.1302 14.6223C15.9216 14.6223 14.9719 14.2175 14.2525 13.437C13.533 12.6565 13.1589 11.6158 13.1589 10.3438V4.04169H16.382V9.64997C16.382 10.2571 16.5547 10.7485 16.8712 11.1243C17.1878 11.5001 17.6194 11.6736 18.1374 11.6736C18.7993 11.6736 19.3173 11.4423 19.6914 10.9798C20.0655 10.5172 20.2382 9.79452 20.2382 8.81162V4.04169H23.49L23.5188 14.3043ZM33.5621 14.3043H24.9289V13.6972L28.9865 6.64347H25.044V4.04169H33.5046V4.64877L29.447 11.7025H33.5334V14.3043H33.5621ZM43.5767 14.3043H34.9722V13.6972L39.0011 6.64347H35.0586V4.04169H43.5191V4.64877L39.4615 11.7025H43.5479L43.5767 14.3043Z" fill="#718087"/>
</svg>
