<svg width="60" height="12" viewBox="0 0 60 12" fill="none" xmlns="http://www.w3.org/2000/svg">
<path d="M20.1237 0.0943844V4.47481H14.021V0.0943844L11.7983 0.0924072V11.1373H14.021V6.39238H20.1237V11.1373H22.3501V0.0943844H20.1237Z" fill="#718087"/>
<path d="M49.6932 0.0947266V11.135H59.4447L58.2096 9.19139H51.9222V6.39272H58.0104V4.52067H51.9222V1.99283H58.1991L59.4091 0.0947266H49.6932Z" fill="#718087"/>
<path d="M3.53639 0.0917969C1.22429 0.0917969 0.0565186 1.4974 0.0565186 3.54263V7.66543C0.0565186 10.0323 1.56141 11.1374 3.52484 11.1374L10.4984 11.1367L9.20563 9.11787H3.95566C2.84034 9.11787 2.35444 8.71476 2.35444 7.46651V3.72605C2.35444 2.51936 2.76349 2.04862 3.98535 2.04862H9.2604L10.5017 0.0917969H3.53639Z" fill="#718087"/>
<path d="M39.9384 0.0890633C38.603 0.0890633 37.2344 0.891652 37.2344 2.95602V3.48646C37.2344 5.63857 38.5512 6.45963 39.8688 6.46524H44.4933C44.9736 6.46524 45.3638 6.54507 45.3638 7.35689L45.3632 8.29473C45.351 9.02409 44.9871 9.19101 44.4768 9.19101H38.3929L37.1466 11.1346H44.6199C46.4221 11.1346 47.6456 10.238 47.6456 8.16707V7.40604C47.6456 5.4037 46.5088 4.45761 44.7463 4.45761H40.3306C39.841 4.45761 39.4999 4.32401 39.4999 3.59894V2.83528C39.4999 2.21775 39.7338 1.99245 40.3042 1.99245L46.0981 1.99014L47.3091 0.0864258L39.9384 0.0890633Z" fill="#718087"/>
<path d="M28.808 0.0947266L23.5712 11.137H26.0462L27.0662 8.85656H32.7569L33.7736 11.137H36.2595L31.0105 0.0947266H28.808ZM29.9061 2.38736L31.9184 6.97693H27.9067L29.9061 2.38736Z" fill="#718087"/>
</svg>
