<svg width="60" height="15" viewBox="0 0 60 15" fill="none" xmlns="http://www.w3.org/2000/svg">
<path opacity="0.8" d="M13.8505 9.96687V12.9895C12.7517 13.9558 10.1261 14.5306 8.17132 14.5306C6.21903 14.5306 0.815186 13.3215 0.815186 7.64041C0.815186 1.95928 5.95872 0.735353 8.03366 0.735353C10.1111 0.735353 12.3237 1.11195 13.6052 1.95928V4.61774C13.6052 4.94974 13.1472 4.92001 13.1472 4.61774C13.1171 4.16434 11.8957 1.44642 8.84211 1.50588C5.54574 1.57278 3.31812 4.13709 3.31812 7.519C3.31812 10.9009 5.48316 13.8047 8.752 13.713C9.81325 13.6833 10.9195 13.3513 11.4552 12.9102L11.4677 9.96687C11.4677 9.12201 10.9496 8.81974 10.4315 8.81974C10.0936 8.81974 10.0936 8.33661 10.4315 8.33661H14.8867C15.2221 8.33661 15.2221 8.84947 14.8867 8.81974C14.3711 8.81974 13.8505 9.12201 13.8505 9.96687ZM43.8882 4.62022C43.8882 4.95222 43.5528 4.92249 43.5528 4.62022C43.5203 4.16682 42.3014 1.35723 39.2478 1.41917C35.9514 1.48359 33.7213 4.13957 33.7213 7.52148C33.7213 10.9034 35.8588 13.8963 39.1251 13.8071C42.3915 13.7155 43.9483 10.5144 44.0709 10.0907C44.1936 9.66708 44.4063 9.72902 44.4063 10.061V12.5386C43.0648 13.5049 40.5293 14.5331 38.577 14.5331C36.6247 14.5331 31.2209 13.324 31.2209 7.64288C31.2209 1.95928 36.3494 0.601562 38.4243 0.601562C40.5018 0.601562 42.6067 1.11442 43.8907 1.95928V4.62022H43.8882ZM30.0595 0.93356C30.5476 0.93356 30.5476 1.38696 30.0595 1.38696C29.5414 1.38696 29.0233 1.68923 29.0233 2.53409L28.9632 9.13687C28.9632 12.2983 26.3727 14.6223 23.1764 14.6223C19.9802 14.6223 17.4847 12.2983 17.4847 9.13687V2.53409C17.4847 1.68675 16.9641 1.38696 16.446 1.38696C15.958 1.38696 15.958 0.93356 16.446 0.93356H20.9638C21.4519 0.93356 21.4519 1.38696 20.9638 1.38696C20.4432 1.38696 19.9251 1.68923 19.9251 2.53409L19.9201 9.9074C19.9201 12.1372 21.7623 13.9459 24.0149 13.9459C26.2676 13.9459 28.0947 11.6838 28.0947 9.45648L27.9846 2.53409C27.9846 1.68675 27.4665 1.38696 26.9459 1.38696C26.4603 1.38696 26.4603 0.93356 26.9459 0.93356H30.0595ZM58.8158 4.62022C58.8158 4.95222 58.4804 4.92249 58.4804 4.62022C58.4503 4.16682 57.2289 1.35723 54.1753 1.41917C50.8789 1.48359 48.6488 4.13957 48.6488 7.52148C48.6488 10.9034 50.7863 13.8963 54.0527 13.8071C57.319 13.7179 58.8758 10.5144 58.9985 10.0907C59.1211 9.66708 59.3364 9.72902 59.3364 10.061V12.5386C57.9923 13.5049 55.4593 14.5331 53.5045 14.5331C51.5522 14.5331 46.1484 13.324 46.1484 7.64288C46.1484 1.95928 51.2769 0.601562 53.3543 0.601562C55.4293 0.601562 57.5368 1.11442 58.8183 1.95928V4.62022H58.8158Z" fill="#718087"/>
</svg>
