<svg width="14" height="14" viewBox="0 0 14 14" fill="none" xmlns="http://www.w3.org/2000/svg">
<path d="M13.1552 4.09426L11.7923 3.27019V0.471161C11.7923 0.38265 11.7207 0.311109 11.6323 0.311109H9.6119C9.52363 0.311109 9.45197 0.38265 9.45197 0.471161V1.85523L6.91493 0.321364C6.89882 0.311719 6.88112 0.305493 6.86292 0.302563C6.82215 0.29304 6.77942 0.299755 6.74353 0.321364L0.508066 4.09426C0.460208 4.12307 0.430908 4.1752 0.430908 4.23112V5.55122C0.430908 5.60859 0.461551 5.66158 0.51124 5.69003C0.56105 5.71859 0.622214 5.71835 0.671659 5.68941L1.61073 5.1404V11.5891H1.1639C1.07551 11.5891 1.00397 11.6607 1.00397 11.7492V12.9398C1.00397 13.0282 1.07551 13.0998 1.1639 13.0998H12.4993C12.5877 13.0998 12.6594 13.0282 12.6594 12.9398V11.7492C12.6594 11.6607 12.5877 11.5891 12.4993 11.5891H12.0525V5.14077L12.9917 5.68941C13.0166 5.70394 13.0444 5.71127 13.0724 5.71127C13.0999 5.71127 13.1273 5.70419 13.152 5.69003C13.2018 5.66158 13.2323 5.60859 13.2323 5.55122V4.23112C13.2323 4.1752 13.203 4.12307 13.1552 4.09426ZM9.77195 0.631092H11.4722V3.07669L9.77195 2.04874V0.631092ZM12.3393 12.7797H1.32396V11.9091H12.3393V12.7797ZM8.27178 11.5891H5.39144V6.59125H8.27178V11.5891ZM11.7325 11.5891H8.59188V6.4312C8.59188 6.34269 8.52022 6.27115 8.43183 6.27115H5.23139C5.14312 6.27115 5.07146 6.34269 5.07146 6.4312V11.5891H1.93072V4.95325L6.82923 2.08915L11.7325 4.95373V11.5891ZM12.9123 5.2725L6.90993 1.76562C6.88502 1.75109 6.85706 1.74377 6.82923 1.74377C6.80127 1.74377 6.77344 1.75109 6.74841 1.76562L0.750891 5.27225V4.32121L6.82923 0.643667L12.9123 4.32121V5.2725Z" fill="#31353B"/>
</svg>
