<svg width="59" height="13" viewBox="0 0 59 13" fill="none" xmlns="http://www.w3.org/2000/svg">
<path d="M58.3351 6.02855V5.01881H57.0814V3.44905L57.0393 3.46209L55.8385 3.82947V5.01881H53.9796V4.3558C53.9618 4.10479 54.0345 3.85568 54.1845 3.65366C54.2568 3.57433 54.3459 3.5121 54.4452 3.47149C54.5446 3.43088 54.6518 3.41291 54.7589 3.41889C54.9472 3.4214 55.1329 3.46362 55.3038 3.5428L55.3499 3.56345V2.501L55.3282 2.49312C55.1028 2.42369 54.8675 2.39228 54.6318 2.40019C54.2878 2.39476 53.948 2.47636 53.6441 2.6374C53.3585 2.79106 53.1232 3.02368 52.9664 3.30748C52.8033 3.60915 52.7207 3.94772 52.7264 4.29059V5.01881H51.8534V6.02855H52.7264V10.2819H53.9796V6.02855H55.8385V8.73059C55.8385 9.84467 56.3635 10.408 57.3993 10.408C57.5782 10.4069 57.7565 10.3872 57.9313 10.349C58.0656 10.3262 58.196 10.2849 58.3188 10.2262L58.3354 10.2164V9.19742L58.2843 9.23111C58.2066 9.28032 58.1216 9.317 58.0324 9.3398C57.9521 9.36465 57.8689 9.37881 57.7849 9.38192C57.6872 9.39046 57.5888 9.37749 57.4966 9.34392C57.4045 9.31035 57.3208 9.25701 57.2515 9.18763C57.1195 8.9888 57.0595 8.75084 57.0814 8.51321V6.02855H58.3351ZM49.0541 9.38273C48.8541 9.39317 48.6543 9.3583 48.4697 9.28071C48.285 9.20312 48.1203 9.08483 47.9878 8.93466C47.7129 8.5723 47.577 8.12346 47.6047 7.6695C47.5755 7.20495 47.7112 6.74501 47.9878 6.37065C48.1175 6.21938 48.2801 6.09974 48.4631 6.02086C48.6461 5.94199 48.8447 5.90595 49.0437 5.91551C49.2368 5.90624 49.4294 5.9405 49.6074 6.01576C49.7853 6.09101 49.9441 6.20534 50.0719 6.35027C50.3465 6.7213 50.4796 7.17809 50.4475 7.63852C50.4792 8.10058 50.3548 8.5599 50.0942 8.94281C49.9671 9.09209 49.8069 9.20958 49.6262 9.28587C49.4456 9.36216 49.2497 9.39569 49.0541 9.38273ZM49.1098 4.89001C48.7348 4.86939 48.3595 4.92583 48.0072 5.05584C47.6549 5.18586 47.3329 5.38669 47.0612 5.64596C46.807 5.9235 46.6107 6.24888 46.4836 6.60312C46.3565 6.95735 46.3013 7.33335 46.321 7.70917C46.303 8.06919 46.3577 8.42914 46.4819 8.76756C46.606 9.10598 46.797 9.41593 47.0435 9.67892C47.3004 9.92558 47.6049 10.1173 47.9383 10.2424C48.2717 10.3675 48.6271 10.4234 48.9829 10.4066C49.3524 10.4248 49.7216 10.366 50.0673 10.2341C50.4129 10.1022 50.7274 9.90004 50.9909 9.64033C51.243 9.3655 51.4382 9.0435 51.5652 8.69289C51.6922 8.34228 51.7486 7.97 51.7311 7.59749C51.7706 6.87057 51.521 6.15753 51.0368 5.61389C50.7832 5.36644 50.481 5.17439 50.1493 5.04992C49.8175 4.92545 49.4635 4.87127 49.1098 4.89083V4.89001ZM44.3002 4.89083C43.779 4.86878 43.2662 5.02724 42.8484 5.33945C42.6687 5.47586 42.5238 5.6528 42.4255 5.85585C42.3271 6.05891 42.2782 6.28231 42.2826 6.50787C42.2783 6.73131 42.3198 6.95326 42.4046 7.16001C42.4888 7.35047 42.6172 7.51814 42.7791 7.64912C43.0125 7.82457 43.2684 7.96787 43.5399 8.07519C43.757 8.16044 43.9686 8.25899 44.1736 8.37028C44.2814 8.42655 44.3764 8.50454 44.4526 8.59935C44.5085 8.6887 44.5355 8.79303 44.5301 8.89825C44.5301 9.25149 44.2654 9.42376 43.7203 9.42376C43.4868 9.41821 43.2557 9.37593 43.0353 9.2985C42.7846 9.21658 42.548 9.09662 42.3337 8.94281L42.2816 8.90558V10.1123L42.3006 10.1213C42.5136 10.2143 42.7365 10.2831 42.9649 10.3264C43.1981 10.3773 43.4358 10.4046 43.6744 10.408C44.2219 10.4366 44.7626 10.2773 45.2072 9.95662C45.3899 9.81646 45.5368 9.63507 45.636 9.42728C45.7352 9.21949 45.7838 8.99119 45.7779 8.76102C45.7869 8.43258 45.6779 8.11177 45.4708 7.85672C45.1808 7.55555 44.8232 7.32781 44.4276 7.19235C44.1613 7.10314 43.9105 6.97277 43.6845 6.80595C43.6329 6.75233 43.593 6.68864 43.5672 6.61889C43.5414 6.54913 43.5303 6.4748 43.5345 6.40054C43.5334 6.3273 43.5501 6.25489 43.5833 6.18956C43.6164 6.12423 43.665 6.06795 43.7247 6.02556C43.8808 5.91753 44.0685 5.86457 44.2581 5.87502C44.4734 5.87605 44.6874 5.90892 44.8931 5.97257C45.0898 6.02992 45.2768 6.11658 45.4477 6.22962L45.4988 6.26468V5.12152L45.4792 5.1131C45.2977 5.04078 45.109 4.98813 44.9162 4.95604C44.7128 4.91618 44.5061 4.89481 44.2988 4.89219L44.3002 4.89083ZM39.0157 9.38273C38.8157 9.39317 38.6159 9.3583 38.4313 9.28071C38.2466 9.20312 38.0819 9.08483 37.9494 8.93466C37.675 8.57263 37.5392 8.12433 37.5666 7.67086C37.5374 7.20631 37.6731 6.74636 37.9497 6.37201C38.0794 6.22069 38.2419 6.10102 38.4249 6.02214C38.6079 5.94325 38.8066 5.90725 39.0056 5.91687C39.1986 5.9076 39.3913 5.94186 39.5693 6.01711C39.7472 6.09237 39.906 6.2067 40.0338 6.35163C40.3084 6.72265 40.4415 7.17945 40.4094 7.63988C40.4411 8.10194 40.3167 8.56126 40.0561 8.94417C39.929 9.09347 39.7688 9.21096 39.5882 9.28726C39.4075 9.36355 39.2116 9.39653 39.0159 9.38355L39.0157 9.38273ZM39.0719 4.89137C38.6969 4.87072 38.3217 4.92714 37.9693 5.05716C37.617 5.18717 37.2951 5.38803 37.0234 5.64731C36.7691 5.92484 36.5728 6.25021 36.4456 6.60444C36.3185 6.95868 36.2632 7.33469 36.2829 7.71053C36.2649 8.07057 36.3196 8.43055 36.4438 8.76897C36.568 9.10739 36.7591 9.41733 37.0057 9.68027C37.2626 9.92695 37.567 10.1187 37.9004 10.2438C38.2339 10.3689 38.5893 10.4248 38.945 10.408C39.3145 10.4261 39.6838 10.3674 40.0294 10.2355C40.3751 10.1036 40.6896 9.90139 40.9531 9.64169C41.2051 9.36686 41.4003 9.04486 41.5274 8.69425C41.6544 8.34364 41.7108 7.97135 41.6933 7.59885C41.7327 6.87188 41.4831 6.15881 40.9987 5.61525C40.7452 5.36783 40.443 5.1758 40.1113 5.05133C39.7796 4.92686 39.4257 4.87267 39.0719 4.89219V4.89137ZM34.3806 5.93045V5.01881H33.1426V10.2819H34.3806V7.58934C34.3629 7.19347 34.4709 6.80215 34.6892 6.47146C34.7768 6.3396 34.896 6.2318 35.036 6.15794C35.176 6.08407 35.3323 6.0465 35.4906 6.04865C35.6165 6.05057 35.7416 6.06884 35.8628 6.103C35.9648 6.12567 36.0624 6.16515 36.1514 6.21984L36.2036 6.25761V5.00984L36.1835 5.00115C36.0281 4.94564 35.8635 4.92063 35.6987 4.92751C35.3962 4.92453 35.1025 5.02977 34.8708 5.22424C34.6538 5.41479 34.4897 5.65814 34.3944 5.93072L34.3806 5.93045ZM30.9256 4.89192C30.401 4.88135 29.8826 5.006 29.4202 5.25386C28.995 5.48784 28.6493 5.8434 28.4273 6.275C28.1934 6.74428 28.0764 7.26316 28.0863 7.78743C28.0801 8.26019 28.1942 8.72676 28.4178 9.14334C28.63 9.53819 28.9517 9.86341 29.3441 10.08C29.7597 10.3037 30.2257 10.417 30.6976 10.409C31.2178 10.4257 31.7333 10.3051 32.1921 10.0593L32.2084 10.0501V8.91564L32.1562 8.95368C31.9709 9.08805 31.7668 9.19435 31.5505 9.26915C31.3605 9.34006 31.1601 9.3789 30.9574 9.38409C30.7433 9.39451 30.5294 9.35968 30.3298 9.28186C30.1301 9.20405 29.949 9.085 29.7984 8.93248C29.4984 8.58689 29.3451 8.13785 29.371 7.68091C29.3483 7.21122 29.5079 6.7509 29.8167 6.39619C29.9647 6.23797 30.1449 6.11332 30.3452 6.03064C30.5455 5.94795 30.7612 5.90916 30.9777 5.91687C31.4044 5.92356 31.8176 6.06732 32.1562 6.3269L32.2081 6.36467V5.16908L32.1913 5.15957C32.011 5.06693 31.818 5.00163 31.6185 4.96583C31.3909 4.91763 31.159 4.89278 30.9264 4.89164L30.9256 4.89192ZM27.2342 5.01854H25.9962V10.2819H27.2342V5.01854ZM26.6279 2.77653C26.4318 2.77341 26.2423 2.8477 26.1005 2.98331C26.0292 3.04877 25.9726 3.12866 25.9345 3.21767C25.8964 3.30669 25.8777 3.40279 25.8796 3.49959C25.8775 3.59462 25.8958 3.689 25.9333 3.77634C25.9708 3.86368 26.0266 3.94194 26.097 4.00582C26.2407 4.13939 26.4307 4.21171 26.6269 4.20744C26.8235 4.21136 27.0141 4.13923 27.1589 4.00609C27.2302 3.94267 27.2869 3.86456 27.3252 3.77712C27.3634 3.68968 27.3822 3.595 27.3804 3.49959C27.3814 3.40426 27.3628 3.30974 27.3257 3.22191C27.2886 3.13408 27.2339 3.0548 27.1649 2.98902C27.0941 2.91918 27.0099 2.86437 26.9174 2.82785C26.8249 2.79134 26.726 2.77388 26.6266 2.77653H26.6279ZM23.5376 4.63024V10.2821H24.8011V2.93793H23.0526L20.8299 8.39283L18.6729 2.93793H16.8523V10.2816H18.0398V4.6297H18.0805L20.3581 10.2816H21.2548L23.4971 4.6297L23.5376 4.63024Z" fill="#718087"/>
<path d="M6.74847 6.30755H0.924561V0.483643H6.74847V6.30755Z" fill="#718087"/>
<path d="M13.1789 6.30755H7.35495V0.483643H13.1789V6.30755Z" fill="#718087"/>
<path d="M6.74847 12.7401H0.924561V6.91618H6.74847V12.7401Z" fill="#718087"/>
<path d="M13.1789 12.7401H7.35495V6.91618H13.1789V12.7401Z" fill="#718087"/>
</svg>
