<svg width="916" height="268" viewBox="0 0 916 268" fill="none" xmlns="http://www.w3.org/2000/svg">
<g filter="url(#filter0_dddddd_2_56)">
<rect x="80" y="2" width="756" height="86" fill="white"/>
<rect x="80.5" y="2.5" width="755" height="85" stroke="#DADADA"/>
</g>
<path opacity="0.3" d="M155.4 53H164.4V51.59H156.87V46.4H163.2V44.99H156.87V40.01H164.4V38.6H155.4V53ZM166.996 53H168.476V47.24C168.476 46.02 168.75 45.0633 169.296 44.37C169.843 43.6767 170.636 43.33 171.676 43.33C172.43 43.33 173.036 43.5133 173.496 43.88C173.956 44.24 174.29 44.7333 174.496 45.36C174.703 45.9867 174.806 46.6967 174.806 47.49V53H176.286V47.06C176.286 46.4533 176.21 45.8467 176.056 45.24C175.91 44.6333 175.67 44.08 175.336 43.58C175.003 43.08 174.56 42.68 174.006 42.38C173.453 42.08 172.77 41.93 171.956 41.93C171.183 41.93 170.483 42.08 169.856 42.38C169.236 42.6733 168.726 43.1133 168.326 43.7V42.2H166.996V53ZM184.961 53V51.71C184.188 51.8367 183.538 51.8567 183.011 51.77C182.491 51.6833 182.111 51.4167 181.871 50.97C181.745 50.7367 181.675 50.47 181.661 50.17C181.655 49.8633 181.651 49.4833 181.651 49.03V43.46H184.961V42.2H181.651V39.2H180.191V42.2H177.881V43.46H180.191V49.09C180.191 49.6167 180.198 50.0867 180.211 50.5C180.231 50.9133 180.338 51.3167 180.531 51.71C180.771 52.19 181.121 52.5433 181.581 52.77C182.048 52.9967 182.575 53.1233 183.161 53.15C183.755 53.1767 184.355 53.1267 184.961 53ZM191.468 53.3C192.515 53.3 193.452 53.0433 194.278 52.53C195.112 52.0167 195.742 51.2867 196.168 50.34L194.798 49.81C194.112 51.1967 192.982 51.89 191.408 51.89C190.328 51.89 189.482 51.5533 188.868 50.88C188.262 50.2067 187.928 49.25 187.868 48.01H196.378C196.432 46.1033 196.015 44.61 195.128 43.53C194.248 42.4433 193.008 41.9 191.408 41.9C190.368 41.9 189.465 42.1333 188.698 42.6C187.938 43.0667 187.348 43.73 186.928 44.59C186.508 45.45 186.298 46.47 186.298 47.65C186.298 48.79 186.508 49.7833 186.928 50.63C187.355 51.4767 187.955 52.1333 188.728 52.6C189.508 53.0667 190.422 53.3 191.468 53.3ZM191.448 43.25C193.482 43.25 194.612 44.4267 194.838 46.78H187.898C188.012 45.64 188.372 44.7667 188.978 44.16C189.585 43.5533 190.408 43.25 191.448 43.25ZM198.798 53H200.268V47.61C200.268 46.9633 200.341 46.32 200.488 45.68C200.641 45.0333 200.988 44.4967 201.528 44.07C201.921 43.75 202.348 43.5667 202.808 43.52C203.274 43.4667 203.708 43.4867 204.108 43.58V42.2C203.634 42.08 203.098 42.0767 202.498 42.19C201.898 42.2967 201.384 42.5367 200.958 42.91C200.638 43.15 200.358 43.4833 200.118 43.91V42.2H198.798V53ZM210.009 53H220.219V51.6H212.459L220.289 38.94V38.6H210.209V40.01H217.879L210.009 52.69V53ZM223.094 40.15H224.564V38.5H223.094V40.15ZM223.094 53H224.564V42.2H223.094V53ZM227.752 57.8H229.232V51.71C229.618 52.2033 230.095 52.5933 230.662 52.88C231.228 53.16 231.878 53.3 232.612 53.3C233.625 53.3 234.488 53.05 235.202 52.55C235.915 52.0433 236.458 51.36 236.832 50.5C237.212 49.64 237.402 48.67 237.402 47.59C237.402 46.5167 237.212 45.55 236.832 44.69C236.458 43.83 235.918 43.15 235.212 42.65C234.505 42.15 233.658 41.9 232.672 41.9C231.872 41.9 231.168 42.06 230.562 42.38C229.962 42.6933 229.465 43.13 229.072 43.69V42.2H227.752V57.8ZM232.462 51.93C231.695 51.93 231.062 51.7433 230.562 51.37C230.062 50.99 229.688 50.4733 229.442 49.82C229.195 49.1667 229.072 48.4233 229.072 47.59C229.072 46.3167 229.348 45.28 229.902 44.48C230.462 43.6733 231.305 43.27 232.432 43.27C233.205 43.27 233.842 43.46 234.342 43.84C234.848 44.22 235.225 44.7367 235.472 45.39C235.718 46.0433 235.842 46.7767 235.842 47.59C235.842 48.41 235.715 49.1467 235.462 49.8C235.215 50.4533 234.842 50.9733 234.342 51.36C233.842 51.74 233.215 51.93 232.462 51.93ZM244.278 53.3C245.351 53.3 246.271 53.05 247.038 52.55C247.811 52.0433 248.401 51.31 248.808 50.35L247.328 49.91C246.781 51.23 245.764 51.89 244.278 51.89C243.118 51.89 242.244 51.5 241.658 50.72C241.071 49.9333 240.771 48.8933 240.758 47.6C240.771 46.34 241.061 45.31 241.628 44.51C242.201 43.71 243.084 43.31 244.278 43.31C244.984 43.31 245.611 43.49 246.158 43.85C246.711 44.2033 247.114 44.7033 247.368 45.35L248.808 44.89C248.508 43.9633 247.951 43.2333 247.138 42.7C246.331 42.1667 245.381 41.9 244.288 41.9C243.214 41.9 242.301 42.14 241.548 42.62C240.794 43.0933 240.218 43.76 239.818 44.62C239.418 45.4733 239.211 46.4667 239.198 47.6C239.211 48.7067 239.411 49.69 239.798 50.55C240.191 51.41 240.764 52.0833 241.518 52.57C242.271 53.0567 243.191 53.3 244.278 53.3ZM255.289 53.3C256.356 53.3 257.269 53.06 258.029 52.58C258.796 52.1 259.382 51.4333 259.789 50.58C260.202 49.72 260.409 48.7233 260.409 47.59C260.409 46.4767 260.206 45.4933 259.799 44.64C259.399 43.78 258.816 43.11 258.049 42.63C257.289 42.1433 256.369 41.9 255.289 41.9C254.236 41.9 253.326 42.14 252.559 42.62C251.799 43.0933 251.212 43.7567 250.799 44.61C250.386 45.4633 250.179 46.4567 250.179 47.59C250.179 48.7033 250.379 49.69 250.779 50.55C251.186 51.41 251.769 52.0833 252.529 52.57C253.296 53.0567 254.216 53.3 255.289 53.3ZM255.289 51.89C254.122 51.89 253.239 51.5 252.639 50.72C252.039 49.9333 251.739 48.89 251.739 47.59C251.739 46.33 252.029 45.3033 252.609 44.51C253.189 43.71 254.082 43.31 255.289 43.31C256.482 43.31 257.372 43.7 257.959 44.48C258.552 45.2533 258.849 46.29 258.849 47.59C258.849 48.8633 258.556 49.9 257.969 50.7C257.382 51.4933 256.489 51.89 255.289 51.89ZM267.005 53.3C267.792 53.3 268.482 53.14 269.075 52.82C269.668 52.4933 270.158 52.05 270.545 51.49V53H271.865V38.6H270.385V43.47C269.992 42.9767 269.505 42.5933 268.925 42.32C268.352 42.04 267.692 41.9 266.945 41.9C265.958 41.9 265.112 42.15 264.405 42.65C263.698 43.15 263.155 43.83 262.775 44.69C262.402 45.55 262.215 46.5167 262.215 47.59C262.215 48.67 262.402 49.64 262.775 50.5C263.155 51.36 263.702 52.0433 264.415 52.55C265.135 53.05 265.998 53.3 267.005 53.3ZM267.155 51.93C266.408 51.93 265.782 51.74 265.275 51.36C264.775 50.9733 264.398 50.4533 264.145 49.8C263.898 49.1467 263.775 48.41 263.775 47.59C263.775 46.7767 263.898 46.0433 264.145 45.39C264.392 44.7367 264.765 44.22 265.265 43.84C265.772 43.46 266.412 43.27 267.185 43.27C268.312 43.27 269.152 43.6733 269.705 44.48C270.265 45.28 270.545 46.3167 270.545 47.59C270.545 48.4233 270.422 49.1667 270.175 49.82C269.928 50.4733 269.555 50.99 269.055 51.37C268.555 51.7433 267.922 51.93 267.155 51.93ZM279.44 53.3C280.487 53.3 281.424 53.0433 282.25 52.53C283.084 52.0167 283.714 51.2867 284.14 50.34L282.77 49.81C282.084 51.1967 280.954 51.89 279.38 51.89C278.3 51.89 277.454 51.5533 276.84 50.88C276.234 50.2067 275.9 49.25 275.84 48.01H284.35C284.404 46.1033 283.987 44.61 283.1 43.53C282.22 42.4433 280.98 41.9 279.38 41.9C278.34 41.9 277.437 42.1333 276.67 42.6C275.91 43.0667 275.32 43.73 274.9 44.59C274.48 45.45 274.27 46.47 274.27 47.65C274.27 48.79 274.48 49.7833 274.9 50.63C275.327 51.4767 275.927 52.1333 276.7 52.6C277.48 53.0667 278.394 53.3 279.44 53.3ZM279.42 43.25C281.454 43.25 282.584 44.4267 282.81 46.78H275.87C275.984 45.64 276.344 44.7667 276.95 44.16C277.557 43.5533 278.38 43.25 279.42 43.25ZM296.853 53V51.71C296.08 51.8367 295.43 51.8567 294.903 51.77C294.383 51.6833 294.003 51.4167 293.763 50.97C293.637 50.7367 293.567 50.47 293.553 50.17C293.547 49.8633 293.543 49.4833 293.543 49.03V43.46H296.853V42.2H293.543V39.2H292.083V42.2H289.773V43.46H292.083V49.09C292.083 49.6167 292.09 50.0867 292.103 50.5C292.123 50.9133 292.23 51.3167 292.423 51.71C292.663 52.19 293.013 52.5433 293.473 52.77C293.94 52.9967 294.467 53.1233 295.053 53.15C295.647 53.1767 296.247 53.1267 296.853 53ZM303.301 53.3C304.367 53.3 305.281 53.06 306.041 52.58C306.807 52.1 307.394 51.4333 307.801 50.58C308.214 49.72 308.421 48.7233 308.421 47.59C308.421 46.4767 308.217 45.4933 307.811 44.64C307.411 43.78 306.827 43.11 306.061 42.63C305.301 42.1433 304.381 41.9 303.301 41.9C302.247 41.9 301.337 42.14 300.571 42.62C299.811 43.0933 299.224 43.7567 298.811 44.61C298.397 45.4633 298.191 46.4567 298.191 47.59C298.191 48.7033 298.391 49.69 298.791 50.55C299.197 51.41 299.781 52.0833 300.541 52.57C301.307 53.0567 302.227 53.3 303.301 53.3ZM303.301 51.89C302.134 51.89 301.251 51.5 300.651 50.72C300.051 49.9333 299.751 48.89 299.751 47.59C299.751 46.33 300.041 45.3033 300.621 44.51C301.201 43.71 302.094 43.31 303.301 43.31C304.494 43.31 305.384 43.7 305.971 44.48C306.564 45.2533 306.861 46.29 306.861 47.59C306.861 48.8633 306.567 49.9 305.981 50.7C305.394 51.4933 304.501 51.89 303.301 51.89ZM319.06 53.29C320.387 53.29 321.427 53 322.18 52.42C322.94 51.8333 323.32 51.03 323.32 50.01C323.32 49.45 323.2 48.98 322.96 48.6C322.727 48.22 322.324 47.89 321.75 47.61C321.184 47.33 320.404 47.0633 319.41 46.81C318.564 46.5967 317.91 46.4 317.45 46.22C316.997 46.04 316.684 45.85 316.51 45.65C316.337 45.4433 316.25 45.1967 316.25 44.91C316.25 44.3967 316.49 43.9867 316.97 43.68C317.45 43.3733 318.074 43.2267 318.84 43.24C319.654 43.2533 320.324 43.4467 320.85 43.82C321.377 44.1867 321.694 44.6867 321.8 45.32L323.3 45.05C323.227 44.4233 322.994 43.8733 322.6 43.4C322.207 42.9267 321.687 42.56 321.04 42.3C320.4 42.0333 319.674 41.9 318.86 41.9C318.047 41.9 317.33 42.03 316.71 42.29C316.097 42.5433 315.617 42.9033 315.27 43.37C314.93 43.83 314.76 44.3667 314.76 44.98C314.76 45.48 314.874 45.9067 315.1 46.26C315.334 46.6067 315.73 46.9167 316.29 47.19C316.85 47.4567 317.617 47.7233 318.59 47.99C319.504 48.2367 320.187 48.45 320.64 48.63C321.1 48.81 321.407 49.0067 321.56 49.22C321.714 49.4267 321.79 49.6967 321.79 50.03C321.79 50.6167 321.554 51.0833 321.08 51.43C320.607 51.7767 319.96 51.95 319.14 51.95C318.3 51.95 317.594 51.77 317.02 51.41C316.447 51.0433 316.084 50.5533 315.93 49.94L314.43 50.19C314.617 51.1633 315.117 51.9233 315.93 52.47C316.75 53.0167 317.794 53.29 319.06 53.29ZM330.308 53.3C331.355 53.3 332.292 53.0433 333.118 52.53C333.952 52.0167 334.582 51.2867 335.008 50.34L333.638 49.81C332.952 51.1967 331.822 51.89 330.248 51.89C329.168 51.89 328.322 51.5533 327.708 50.88C327.102 50.2067 326.768 49.25 326.708 48.01H335.218C335.272 46.1033 334.855 44.61 333.968 43.53C333.088 42.4433 331.848 41.9 330.248 41.9C329.208 41.9 328.305 42.1333 327.538 42.6C326.778 43.0667 326.188 43.73 325.768 44.59C325.348 45.45 325.138 46.47 325.138 47.65C325.138 48.79 325.348 49.7833 325.768 50.63C326.195 51.4767 326.795 52.1333 327.568 52.6C328.348 53.0667 329.262 53.3 330.308 53.3ZM330.288 43.25C332.322 43.25 333.452 44.4267 333.678 46.78H326.738C326.852 45.64 327.212 44.7667 327.818 44.16C328.425 43.5533 329.248 43.25 330.288 43.25ZM340.532 53.3C342.419 53.3 343.789 52.6033 344.642 51.21V53H345.952V46.29C345.952 45.89 345.932 45.4967 345.892 45.11C345.852 44.7233 345.766 44.3733 345.632 44.06C345.346 43.36 344.856 42.8267 344.162 42.46C343.476 42.0867 342.639 41.9 341.652 41.9C340.466 41.9 339.499 42.1667 338.752 42.7C338.006 43.2333 337.506 43.9833 337.252 44.95L338.682 45.37C338.889 44.65 339.246 44.1233 339.752 43.79C340.266 43.4567 340.892 43.29 341.632 43.29C342.659 43.29 343.392 43.53 343.832 44.01C344.272 44.4833 344.499 45.2067 344.512 46.18C344.032 46.2467 343.502 46.3167 342.922 46.39C342.349 46.4633 341.772 46.5467 341.192 46.64C340.612 46.7333 340.079 46.84 339.592 46.96C338.786 47.1733 338.126 47.53 337.612 48.03C337.099 48.5233 336.842 49.2133 336.842 50.1C336.842 50.6733 336.979 51.2033 337.252 51.69C337.526 52.1767 337.936 52.5667 338.482 52.86C339.036 53.1533 339.719 53.3 340.532 53.3ZM340.702 52.03C340.122 52.03 339.656 51.9367 339.302 51.75C338.956 51.5567 338.702 51.3133 338.542 51.02C338.389 50.72 338.312 50.4133 338.312 50.1C338.312 49.5133 338.509 49.0733 338.902 48.78C339.296 48.4867 339.722 48.2733 340.182 48.14C340.776 47.98 341.466 47.85 342.252 47.75C343.039 47.65 343.786 47.5567 344.492 47.47C344.492 47.7167 344.482 48 344.462 48.32C344.449 48.6333 344.412 48.9233 344.352 49.19C344.212 50.0033 343.826 50.68 343.192 51.22C342.566 51.76 341.736 52.03 340.702 52.03ZM348.755 53H350.225V47.61C350.225 46.9633 350.299 46.32 350.445 45.68C350.599 45.0333 350.945 44.4967 351.485 44.07C351.879 43.75 352.305 43.5667 352.765 43.52C353.232 43.4667 353.665 43.4867 354.065 43.58V42.2C353.592 42.08 353.055 42.0767 352.455 42.19C351.855 42.2967 351.342 42.5367 350.915 42.91C350.595 43.15 350.315 43.4833 350.075 43.91V42.2H348.755V53ZM360.447 53.3C361.521 53.3 362.441 53.05 363.207 52.55C363.981 52.0433 364.571 51.31 364.977 50.35L363.497 49.91C362.951 51.23 361.934 51.89 360.447 51.89C359.287 51.89 358.414 51.5 357.827 50.72C357.241 49.9333 356.941 48.8933 356.927 47.6C356.941 46.34 357.231 45.31 357.797 44.51C358.371 43.71 359.254 43.31 360.447 43.31C361.154 43.31 361.781 43.49 362.327 43.85C362.881 44.2033 363.284 44.7033 363.537 45.35L364.977 44.89C364.677 43.9633 364.121 43.2333 363.307 42.7C362.501 42.1667 361.551 41.9 360.457 41.9C359.384 41.9 358.471 42.14 357.717 42.62C356.964 43.0933 356.387 43.76 355.987 44.62C355.587 45.4733 355.381 46.4667 355.367 47.6C355.381 48.7067 355.581 49.69 355.967 50.55C356.361 51.41 356.934 52.0833 357.687 52.57C358.441 53.0567 359.361 53.3 360.447 53.3ZM367.231 53H368.711V47.24C368.711 46.02 368.985 45.0633 369.531 44.37C370.078 43.6767 370.871 43.33 371.911 43.33C372.665 43.33 373.271 43.5133 373.731 43.88C374.191 44.24 374.525 44.7333 374.731 45.36C374.938 45.9867 375.041 46.6967 375.041 47.49V53H376.521V47.06C376.521 46.4533 376.445 45.8467 376.291 45.24C376.145 44.6333 375.905 44.08 375.571 43.58C375.238 43.08 374.795 42.68 374.241 42.38C373.688 42.08 373.005 41.93 372.191 41.93C371.418 41.93 370.718 42.08 370.091 42.38C369.471 42.6733 368.961 43.1133 368.561 43.7V38.6H367.231V53ZM383.51 57.8H384.99V51.71C385.377 52.2033 385.854 52.5933 386.42 52.88C386.987 53.16 387.637 53.3 388.37 53.3C389.384 53.3 390.247 53.05 390.96 52.55C391.674 52.0433 392.217 51.36 392.59 50.5C392.97 49.64 393.16 48.67 393.16 47.59C393.16 46.5167 392.97 45.55 392.59 44.69C392.217 43.83 391.677 43.15 390.97 42.65C390.264 42.15 389.417 41.9 388.43 41.9C387.63 41.9 386.927 42.06 386.32 42.38C385.72 42.6933 385.224 43.13 384.83 43.69V42.2H383.51V57.8ZM388.22 51.93C387.454 51.93 386.82 51.7433 386.32 51.37C385.82 50.99 385.447 50.4733 385.2 49.82C384.954 49.1667 384.83 48.4233 384.83 47.59C384.83 46.3167 385.107 45.28 385.66 44.48C386.22 43.6733 387.064 43.27 388.19 43.27C388.964 43.27 389.6 43.46 390.1 43.84C390.607 44.22 390.984 44.7367 391.23 45.39C391.477 46.0433 391.6 46.7767 391.6 47.59C391.6 48.41 391.474 49.1467 391.22 49.8C390.974 50.4533 390.6 50.9733 390.1 51.36C389.6 51.74 388.974 51.93 388.22 51.93ZM395.556 53H397.026V47.61C397.026 46.9633 397.1 46.32 397.246 45.68C397.4 45.0333 397.746 44.4967 398.286 44.07C398.68 43.75 399.106 43.5667 399.566 43.52C400.033 43.4667 400.466 43.4867 400.866 43.58V42.2C400.393 42.08 399.856 42.0767 399.256 42.19C398.656 42.2967 398.143 42.5367 397.716 42.91C397.396 43.15 397.116 43.4833 396.876 43.91V42.2H395.556V53ZM407.278 53.3C408.345 53.3 409.258 53.06 410.018 52.58C410.785 52.1 411.371 51.4333 411.778 50.58C412.191 49.72 412.398 48.7233 412.398 47.59C412.398 46.4767 412.195 45.4933 411.788 44.64C411.388 43.78 410.805 43.11 410.038 42.63C409.278 42.1433 408.358 41.9 407.278 41.9C406.225 41.9 405.315 42.14 404.548 42.62C403.788 43.0933 403.201 43.7567 402.788 44.61C402.375 45.4633 402.168 46.4567 402.168 47.59C402.168 48.7033 402.368 49.69 402.768 50.55C403.175 51.41 403.758 52.0833 404.518 52.57C405.285 53.0567 406.205 53.3 407.278 53.3ZM407.278 51.89C406.111 51.89 405.228 51.5 404.628 50.72C404.028 49.9333 403.728 48.89 403.728 47.59C403.728 46.33 404.018 45.3033 404.598 44.51C405.178 43.71 406.071 43.31 407.278 43.31C408.471 43.31 409.361 43.7 409.948 44.48C410.541 45.2533 410.838 46.29 410.838 47.59C410.838 48.8633 410.545 49.9 409.958 50.7C409.371 51.4933 408.478 51.89 407.278 51.89ZM414.794 57.8H416.274V51.71C416.661 52.2033 417.137 52.5933 417.704 52.88C418.271 53.16 418.921 53.3 419.654 53.3C420.667 53.3 421.531 53.05 422.244 52.55C422.957 52.0433 423.501 51.36 423.874 50.5C424.254 49.64 424.444 48.67 424.444 47.59C424.444 46.5167 424.254 45.55 423.874 44.69C423.501 43.83 422.961 43.15 422.254 42.65C421.547 42.15 420.701 41.9 419.714 41.9C418.914 41.9 418.211 42.06 417.604 42.38C417.004 42.6933 416.507 43.13 416.114 43.69V42.2H414.794V57.8ZM419.504 51.93C418.737 51.93 418.104 51.7433 417.604 51.37C417.104 50.99 416.731 50.4733 416.484 49.82C416.237 49.1667 416.114 48.4233 416.114 47.59C416.114 46.3167 416.391 45.28 416.944 44.48C417.504 43.6733 418.347 43.27 419.474 43.27C420.247 43.27 420.884 43.46 421.384 43.84C421.891 44.22 422.267 44.7367 422.514 45.39C422.761 46.0433 422.884 46.7767 422.884 47.59C422.884 48.41 422.757 49.1467 422.504 49.8C422.257 50.4533 421.884 50.9733 421.384 51.36C420.884 51.74 420.257 51.93 419.504 51.93ZM431.41 53.3C432.457 53.3 433.393 53.0433 434.22 52.53C435.053 52.0167 435.683 51.2867 436.11 50.34L434.74 49.81C434.053 51.1967 432.923 51.89 431.35 51.89C430.27 51.89 429.423 51.5533 428.81 50.88C428.203 50.2067 427.87 49.25 427.81 48.01H436.32C436.373 46.1033 435.957 44.61 435.07 43.53C434.19 42.4433 432.95 41.9 431.35 41.9C430.31 41.9 429.407 42.1333 428.64 42.6C427.88 43.0667 427.29 43.73 426.87 44.59C426.45 45.45 426.24 46.47 426.24 47.65C426.24 48.79 426.45 49.7833 426.87 50.63C427.297 51.4767 427.897 52.1333 428.67 52.6C429.45 53.0667 430.363 53.3 431.41 53.3ZM431.39 43.25C433.423 43.25 434.553 44.4267 434.78 46.78H427.84C427.953 45.64 428.313 44.7667 428.92 44.16C429.527 43.5533 430.35 43.25 431.39 43.25ZM438.739 53H440.209V47.61C440.209 46.9633 440.282 46.32 440.429 45.68C440.582 45.0333 440.929 44.4967 441.469 44.07C441.862 43.75 442.289 43.5667 442.749 43.52C443.216 43.4667 443.649 43.4867 444.049 43.58V42.2C443.576 42.08 443.039 42.0767 442.439 42.19C441.839 42.2967 441.326 42.5367 440.899 42.91C440.579 43.15 440.299 43.4833 440.059 43.91V42.2H438.739V53ZM452.026 53V51.71C451.253 51.8367 450.603 51.8567 450.076 51.77C449.556 51.6833 449.176 51.4167 448.936 50.97C448.809 50.7367 448.739 50.47 448.726 50.17C448.719 49.8633 448.716 49.4833 448.716 49.03V43.46H452.026V42.2H448.716V39.2H447.256V42.2H444.946V43.46H447.256V49.09C447.256 49.6167 447.263 50.0867 447.276 50.5C447.296 50.9133 447.403 51.3167 447.596 51.71C447.836 52.19 448.186 52.5433 448.646 52.77C449.113 52.9967 449.639 53.1233 450.226 53.15C450.819 53.1767 451.419 53.1267 452.026 53ZM454.554 40.15H456.024V38.5H454.554V40.15ZM454.554 53H456.024V42.2H454.554V53ZM463.792 53.3C464.839 53.3 465.775 53.0433 466.602 52.53C467.435 52.0167 468.065 51.2867 468.492 50.34L467.122 49.81C466.435 51.1967 465.305 51.89 463.732 51.89C462.652 51.89 461.805 51.5533 461.192 50.88C460.585 50.2067 460.252 49.25 460.192 48.01H468.702C468.755 46.1033 468.339 44.61 467.452 43.53C466.572 42.4433 465.332 41.9 463.732 41.9C462.692 41.9 461.789 42.1333 461.022 42.6C460.262 43.0667 459.672 43.73 459.252 44.59C458.832 45.45 458.622 46.47 458.622 47.65C458.622 48.79 458.832 49.7833 459.252 50.63C459.679 51.4767 460.279 52.1333 461.052 52.6C461.832 53.0667 462.745 53.3 463.792 53.3ZM463.772 43.25C465.805 43.25 466.935 44.4267 467.162 46.78H460.222C460.335 45.64 460.695 44.7667 461.302 44.16C461.909 43.5533 462.732 43.25 463.772 43.25ZM475.151 53.29C476.478 53.29 477.518 53 478.271 52.42C479.031 51.8333 479.411 51.03 479.411 50.01C479.411 49.45 479.291 48.98 479.051 48.6C478.818 48.22 478.414 47.89 477.841 47.61C477.274 47.33 476.494 47.0633 475.501 46.81C474.654 46.5967 474.001 46.4 473.541 46.22C473.088 46.04 472.774 45.85 472.601 45.65C472.428 45.4433 472.341 45.1967 472.341 44.91C472.341 44.3967 472.581 43.9867 473.061 43.68C473.541 43.3733 474.164 43.2267 474.931 43.24C475.744 43.2533 476.414 43.4467 476.941 43.82C477.468 44.1867 477.784 44.6867 477.891 45.32L479.391 45.05C479.318 44.4233 479.084 43.8733 478.691 43.4C478.298 42.9267 477.778 42.56 477.131 42.3C476.491 42.0333 475.764 41.9 474.951 41.9C474.138 41.9 473.421 42.03 472.801 42.29C472.188 42.5433 471.708 42.9033 471.361 43.37C471.021 43.83 470.851 44.3667 470.851 44.98C470.851 45.48 470.964 45.9067 471.191 46.26C471.424 46.6067 471.821 46.9167 472.381 47.19C472.941 47.4567 473.708 47.7233 474.681 47.99C475.594 48.2367 476.278 48.45 476.731 48.63C477.191 48.81 477.498 49.0067 477.651 49.22C477.804 49.4267 477.881 49.6967 477.881 50.03C477.881 50.6167 477.644 51.0833 477.171 51.43C476.698 51.7767 476.051 51.95 475.231 51.95C474.391 51.95 473.684 51.77 473.111 51.41C472.538 51.0433 472.174 50.5533 472.021 49.94L470.521 50.19C470.708 51.1633 471.208 51.9233 472.021 52.47C472.841 53.0167 473.884 53.29 475.151 53.29Z" fill="#31353B"/>
<path d="M133.904 41.2272L131.668 39.8754V35.2837C131.668 35.1385 131.551 35.0212 131.406 35.0212H128.092C127.947 35.0212 127.829 35.1385 127.829 35.2837V37.5542L123.667 35.038C123.641 35.0222 123.612 35.012 123.582 35.0072C123.515 34.9916 123.445 35.0026 123.386 35.038L113.157 41.2272C113.079 41.2745 113.031 41.36 113.031 41.4517V43.6172C113.031 43.7114 113.081 43.7983 113.163 43.8449C113.244 43.8918 113.345 43.8914 113.426 43.8439L114.966 42.9433V53.522H114.233C114.088 53.522 113.971 53.6394 113.971 53.7846V55.7376C113.971 55.8826 114.088 56.0002 114.233 56.0002H132.828C132.973 56.0002 133.091 55.8826 133.091 55.7376V53.7846C133.091 53.6394 132.973 53.522 132.828 53.522H132.095V42.9439L133.636 43.8439C133.677 43.8678 133.722 43.8798 133.768 43.8798C133.813 43.8798 133.858 43.8682 133.899 43.8449C133.981 43.7983 134.031 43.7114 134.031 43.6172V41.4517C134.031 41.36 133.983 41.2745 133.904 41.2272V41.2272ZM128.354 35.5461H131.143V39.5579L128.354 37.8716V35.5461ZM132.566 55.4751H114.496V54.0469H132.566V55.4751ZM125.893 53.522H121.168V45.3233H125.893V53.522ZM131.57 53.522H126.418V45.0608C126.418 44.9156 126.301 44.7982 126.156 44.7982H120.906C120.761 44.7982 120.643 44.9156 120.643 45.0608V53.522H115.491V42.6363L123.527 37.9379L131.57 42.6371V53.522ZM133.506 43.16L123.659 37.4072C123.618 37.3834 123.572 37.3714 123.527 37.3714C123.481 37.3714 123.435 37.3834 123.394 37.4072L113.556 43.1596V41.5995L123.527 35.5667L133.506 41.5995V43.16Z" fill="#31353B"/>
<rect x="648" y="2" width="188" height="86" fill="#F85A47"/>
<path d="M693.721 52.255C694.559 52.255 695.344 52.1133 696.075 51.83C696.806 51.5467 697.395 51.1217 697.843 50.555C698.296 49.9883 698.523 49.2828 698.523 48.4385C698.523 47.8322 698.41 47.3307 698.183 46.934C697.962 46.5317 697.676 46.2087 697.325 45.965C696.979 45.7213 696.619 45.5315 696.245 45.3955C695.877 45.2595 695.542 45.1518 695.242 45.0725L693.049 44.4605C692.777 44.3868 692.505 44.2962 692.233 44.1885C691.961 44.0752 691.734 43.925 691.553 43.738C691.372 43.5453 691.281 43.2988 691.281 42.9985C691.281 42.6812 691.386 42.4035 691.596 42.1655C691.811 41.9275 692.091 41.7433 692.437 41.613C692.788 41.4827 693.168 41.4232 693.576 41.4345C694.205 41.4515 694.772 41.6357 695.276 41.987C695.78 42.3383 696.098 42.837 696.228 43.483L698.43 43.1005C698.158 41.9672 697.599 41.0917 696.755 40.474C695.911 39.8507 694.86 39.5333 693.602 39.522C692.774 39.5163 692.021 39.6495 691.341 39.9215C690.666 40.1878 690.128 40.5873 689.726 41.12C689.329 41.6527 689.131 42.3128 689.131 43.1005C689.131 43.6388 689.218 44.0922 689.394 44.4605C689.575 44.8232 689.805 45.1207 690.083 45.353C690.366 45.5853 690.663 45.7695 690.975 45.9055C691.292 46.0415 691.587 46.1492 691.859 46.2285L695.021 47.1635C695.928 47.4355 696.381 47.9058 696.381 48.5745C696.381 48.9485 696.259 49.2687 696.016 49.535C695.778 49.7957 695.466 49.994 695.081 50.13C694.695 50.266 694.284 50.334 693.848 50.334C693.111 50.334 692.46 50.1357 691.893 49.739C691.332 49.3423 690.961 48.7813 690.78 48.056L688.655 48.379C688.785 49.178 689.08 49.8693 689.539 50.453C690.003 51.031 690.593 51.4758 691.307 51.7875C692.026 52.0992 692.831 52.255 693.721 52.255ZM704.706 52.255C705.59 52.255 706.398 52.0283 707.129 51.575C707.866 51.116 708.41 50.47 708.761 49.637L706.738 49.025C706.33 49.8977 705.613 50.334 704.587 50.334C703.89 50.334 703.341 50.1328 702.938 49.7305C702.536 49.3225 702.295 48.7388 702.216 47.9795H708.863C708.942 46.8745 708.82 45.9168 708.497 45.1065C708.174 44.2962 707.679 43.67 707.01 43.228C706.347 42.786 705.539 42.565 704.587 42.565C703.686 42.565 702.893 42.769 702.207 43.177C701.522 43.5793 700.986 44.1517 700.601 44.894C700.216 45.6363 700.023 46.509 700.023 47.512C700.023 48.4413 700.218 49.263 700.609 49.977C701.006 50.691 701.556 51.2492 702.258 51.6515C702.961 52.0538 703.777 52.255 704.706 52.255ZM704.672 44.3585C705.307 44.3585 705.794 44.5257 706.134 44.86C706.48 45.1887 706.698 45.7128 706.789 46.4325H702.267C702.511 45.0498 703.312 44.3585 704.672 44.3585ZM713.33 52.255C714.061 52.255 714.682 52.136 715.192 51.898C715.708 51.6543 716.161 51.2775 716.552 50.7675V52H718.345V46.3645C718.345 45.9678 718.328 45.6023 718.294 45.268C718.26 44.928 718.161 44.5965 717.997 44.2735C717.697 43.6672 717.235 43.2308 716.611 42.9645C715.994 42.6982 715.277 42.565 714.461 42.565C713.384 42.565 712.526 42.8002 711.885 43.2705C711.245 43.7408 710.812 44.3642 710.585 45.1405L712.455 45.727C712.608 45.2567 712.877 44.9252 713.262 44.7325C713.648 44.5398 714.047 44.4435 714.461 44.4435C715.084 44.4435 715.543 44.571 715.838 44.826C716.133 45.0753 716.3 45.4635 716.339 45.9905C715.535 46.1095 714.787 46.2257 714.095 46.339C713.41 46.4467 712.826 46.5798 712.344 46.7385C711.619 46.9878 711.089 47.342 710.755 47.801C710.421 48.2543 710.253 48.8153 710.253 49.484C710.253 49.9883 710.37 50.4502 710.602 50.8695C710.84 51.2888 711.188 51.626 711.647 51.881C712.106 52.1303 712.667 52.255 713.33 52.255ZM713.738 50.623C713.257 50.623 712.888 50.5125 712.633 50.2915C712.384 50.0705 712.259 49.7928 712.259 49.4585C712.259 49.1582 712.356 48.9145 712.548 48.7275C712.747 48.5405 713.022 48.3818 713.373 48.2515C713.696 48.1438 714.084 48.0503 714.537 47.971C714.991 47.886 715.583 47.7868 716.314 47.6735C716.308 47.8888 716.294 48.1297 716.271 48.396C716.249 48.6567 716.195 48.8918 716.11 49.1015C716.042 49.3112 715.909 49.535 715.71 49.773C715.518 50.011 715.257 50.2122 714.928 50.3765C714.6 50.5408 714.203 50.623 713.738 50.623ZM720.728 52H722.785V47.3335C722.785 46.8008 722.882 46.3277 723.074 45.914C723.273 45.5003 723.581 45.1802 724.001 44.9535C724.284 44.7892 724.601 44.6928 724.953 44.6645C725.304 44.6305 725.619 44.6532 725.896 44.7325V42.82C725.483 42.7577 725.058 42.7662 724.621 42.8455C724.185 42.9192 723.797 43.0722 723.457 43.3045C723.264 43.4235 723.091 43.568 722.938 43.738C722.785 43.9023 722.652 44.0865 722.539 44.2905V42.82H720.728V52ZM731.509 52.255C732.535 52.255 733.402 52.0057 734.11 51.507C734.818 51.0027 735.314 50.283 735.597 49.348L733.506 48.8805C733.348 49.3508 733.11 49.7107 732.792 49.96C732.481 50.2093 732.053 50.334 731.509 50.334C730.738 50.334 730.157 50.0648 729.766 49.5265C729.381 48.9882 729.186 48.2827 729.18 47.41C729.186 46.5657 729.373 45.8687 729.741 45.319C730.115 44.7637 730.704 44.486 731.509 44.486C731.979 44.486 732.399 44.6248 732.767 44.9025C733.135 45.1745 733.399 45.557 733.557 46.05L735.597 45.4975C735.382 44.5908 734.912 43.8768 734.186 43.3555C733.461 42.8285 732.577 42.565 731.534 42.565C730.605 42.565 729.803 42.7747 729.129 43.194C728.455 43.6077 727.933 44.18 727.565 44.911C727.202 45.6363 727.018 46.4693 727.012 47.41C727.018 48.3337 727.197 49.161 727.548 49.892C727.905 50.623 728.418 51.201 729.086 51.626C729.755 52.0453 730.563 52.255 731.509 52.255ZM737.454 52H739.528V47.2825C739.528 46.5402 739.632 45.9678 739.842 45.5655C740.057 45.1575 740.329 44.877 740.658 44.724C740.992 44.5653 741.332 44.486 741.678 44.486C742.165 44.486 742.554 44.5937 742.843 44.809C743.132 45.0187 743.344 45.2878 743.48 45.6165C743.622 45.9395 743.712 46.2767 743.752 46.628C743.797 46.9793 743.82 47.2967 743.82 47.58V52H745.894V46.8745C745.894 46.6592 745.874 46.373 745.835 46.016C745.801 45.659 745.721 45.2822 745.597 44.8855C745.472 44.4888 745.279 44.1148 745.019 43.7635C744.758 43.4065 744.404 43.1175 743.956 42.8965C743.514 42.6698 742.956 42.5565 742.282 42.5565C741.619 42.5565 741.035 42.6727 740.531 42.905C740.032 43.1317 739.615 43.4433 739.281 43.84V39.76H737.454V52ZM751.856 52H753.93V43.3725L759.608 52H761.682V39.76H759.608V48.3875L753.93 39.76H751.856V52ZM768.282 52.255C769.2 52.255 770.002 52.051 770.688 51.643C771.373 51.2293 771.906 50.6598 772.286 49.9345C772.671 49.2035 772.864 48.362 772.864 47.41C772.864 46.4637 772.674 45.6278 772.294 44.9025C771.915 44.1715 771.382 43.5992 770.696 43.1855C770.011 42.7718 769.206 42.565 768.282 42.565C767.381 42.565 766.588 42.769 765.902 43.177C765.217 43.585 764.681 44.1517 764.296 44.877C763.91 45.6023 763.718 46.4467 763.718 47.41C763.718 48.3563 763.905 49.195 764.279 49.926C764.658 50.6513 765.191 51.2208 765.877 51.6345C766.562 52.0482 767.364 52.255 768.282 52.255ZM768.282 50.334C767.495 50.334 766.897 50.0705 766.489 49.5435C766.086 49.0108 765.885 48.2997 765.885 47.41C765.885 46.543 766.078 45.8403 766.463 45.302C766.854 44.758 767.461 44.486 768.282 44.486C769.087 44.486 769.69 44.7523 770.093 45.285C770.495 45.812 770.696 46.5203 770.696 47.41C770.696 48.2713 770.495 48.974 770.093 49.518C769.696 50.062 769.093 50.334 768.282 50.334ZM776.529 52H778.127L780.201 45.6845L782.284 52H783.882L786.687 42.82H784.681L782.879 48.7105L781.068 42.82H779.343L777.524 48.7105L775.73 42.82L773.724 42.803L776.529 52ZM789.241 48.94H791.289V39.76H789.241V48.94ZM789.241 52H791.289V50.1215H789.241V52Z" fill="white"/>
<defs>
<filter id="filter0_dddddd_2_56" x="0" y="0.703704" width="916" height="267.296" filterUnits="userSpaceOnUse" color-interpolation-filters="sRGB">
<feFlood flood-opacity="0" result="BackgroundImageFix"/>
<feColorMatrix in="SourceAlpha" type="matrix" values="0 0 0 0 0 0 0 0 0 0 0 0 0 0 0 0 0 0 127 0" result="hardAlpha"/>
<feOffset dy="1.85185"/>
<feGaussianBlur stdDeviation="1.57407"/>
<feColorMatrix type="matrix" values="0 0 0 0 0 0 0 0 0 0 0 0 0 0 0 0 0 0 0.01 0"/>
<feBlend mode="normal" in2="BackgroundImageFix" result="effect1_dropShadow_2_56"/>
<feColorMatrix in="SourceAlpha" type="matrix" values="0 0 0 0 0 0 0 0 0 0 0 0 0 0 0 0 0 0 127 0" result="hardAlpha"/>
<feOffset dy="8.14815"/>
<feGaussianBlur stdDeviation="3.25926"/>
<feColorMatrix type="matrix" values="0 0 0 0 0 0 0 0 0 0 0 0 0 0 0 0 0 0 0.0117778 0"/>
<feBlend mode="normal" in2="effect1_dropShadow_2_56" result="effect2_dropShadow_2_56"/>
<feColorMatrix in="SourceAlpha" type="matrix" values="0 0 0 0 0 0 0 0 0 0 0 0 0 0 0 0 0 0 127 0" result="hardAlpha"/>
<feOffset dy="20"/>
<feGaussianBlur stdDeviation="6.5"/>
<feColorMatrix type="matrix" values="0 0 0 0 0 0 0 0 0 0 0 0 0 0 0 0 0 0 0.015 0"/>
<feBlend mode="normal" in2="effect2_dropShadow_2_56" result="effect3_dropShadow_2_56"/>
<feColorMatrix in="SourceAlpha" type="matrix" values="0 0 0 0 0 0 0 0 0 0 0 0 0 0 0 0 0 0 127 0" result="hardAlpha"/>
<feOffset dy="38.5185"/>
<feGaussianBlur stdDeviation="12.7407"/>
<feColorMatrix type="matrix" values="0 0 0 0 0 0 0 0 0 0 0 0 0 0 0 0 0 0 0.0182222 0"/>
<feBlend mode="normal" in2="effect3_dropShadow_2_56" result="effect4_dropShadow_2_56"/>
<feColorMatrix in="SourceAlpha" type="matrix" values="0 0 0 0 0 0 0 0 0 0 0 0 0 0 0 0 0 0 127 0" result="hardAlpha"/>
<feOffset dy="64.8148"/>
<feGaussianBlur stdDeviation="23.4259"/>
<feColorMatrix type="matrix" values="0 0 0 0 0 0 0 0 0 0 0 0 0 0 0 0 0 0 0.0227778 0"/>
<feBlend mode="normal" in2="effect4_dropShadow_2_56" result="effect5_dropShadow_2_56"/>
<feColorMatrix in="SourceAlpha" type="matrix" values="0 0 0 0 0 0 0 0 0 0 0 0 0 0 0 0 0 0 127 0" result="hardAlpha"/>
<feOffset dy="100"/>
<feGaussianBlur stdDeviation="40"/>
<feColorMatrix type="matrix" values="0 0 0 0 0 0 0 0 0 0 0 0 0 0 0 0 0 0 0.03 0"/>
<feBlend mode="normal" in2="effect5_dropShadow_2_56" result="effect6_dropShadow_2_56"/>
<feBlend mode="normal" in="SourceGraphic" in2="effect6_dropShadow_2_56" result="shape"/>
</filter>
</defs>
</svg>
