<svg width="46" height="11" viewBox="0 0 46 11" fill="none" xmlns="http://www.w3.org/2000/svg">
<path d="M7.53343 0.735107H9.29175V6.43625C9.29175 9.43581 7.41686 10.4886 4.6968 10.4886C1.98647 10.4886 0.111572 9.43581 0.111572 6.43625V0.963551C0.111572 0.804634 0.189288 0.735107 0.34472 0.735107H2.10304V6.34686C2.10304 8.14461 2.8802 8.88954 4.6968 8.88954C6.52313 8.88954 7.30028 8.14461 7.30028 6.34686V0.963551C7.30028 0.804634 7.378 0.735107 7.53343 0.735107ZM27.4384 2.29448V4.6981H31.8876C31.9653 4.6981 31.9945 4.73783 31.9653 4.81729L31.4796 6.04889C31.431 6.15815 31.363 6.20781 31.2173 6.20781H28.6041C27.7493 6.20781 27.4384 6.47598 27.4384 7.06199V8.76042H33.4614C33.5391 8.76042 33.5682 8.80015 33.5391 8.8796L33.0339 10.1609C32.9854 10.2701 32.9174 10.3198 32.7716 10.3198H26.1755C25.6704 10.3198 25.4761 10.141 25.4761 9.75365V1.40057C25.4761 0.933754 25.7286 0.735107 26.3892 0.735107H33.4614C33.5391 0.735107 33.5682 0.774837 33.5391 0.844363L33.0339 2.13556C32.9854 2.24482 32.9174 2.29448 32.7716 2.29448H27.4384ZM21.8526 7.66786C21.8526 9.5848 20.5314 10.3198 18.6759 10.3198H13.7604C13.2455 10.3198 13.061 10.141 13.061 9.75365V1.40057C13.061 0.933754 13.3038 0.735107 13.9741 0.735107H17.9668C19.7154 0.735107 21.4057 1.04301 21.4057 3.16852C21.4057 4.0823 21.0851 4.85702 20.3177 5.26424C21.3766 5.55228 21.8526 6.52565 21.8526 7.66786ZM14.9941 4.7279H18.1125C19.1422 4.7279 19.4337 4.32067 19.4337 3.48636C19.4337 2.65204 19.1422 2.25475 18.1125 2.25475H14.9941V4.7279ZM19.8805 7.48908C19.8805 6.6051 19.5794 6.16808 18.4719 6.16808H16.1696C15.3147 6.16808 14.9941 6.43625 14.9941 7.02226V8.80015H18.4719C19.5794 8.80015 19.8805 8.36312 19.8805 7.48908ZM45.721 10.3198H43.9336C43.7879 10.3198 43.7296 10.2602 43.6713 10.1609L41.777 6.6647H40.0381C39.1832 6.6647 38.8626 6.93287 38.8626 7.51888V10.3198H37.1529C36.9974 10.3198 36.9197 10.2403 36.9197 10.0913V1.40057C36.9197 0.933754 37.1723 0.735107 37.8329 0.735107H41.845C44.1861 0.735107 45.5947 1.36084 45.5947 3.685C45.5947 5.48275 44.7496 6.18795 43.7004 6.46605L45.8085 10.1509C45.8473 10.2105 45.8473 10.3198 45.721 10.3198ZM43.6227 3.72473C43.6227 2.75137 43.3604 2.27462 42.1364 2.27462H38.8626V5.17485H42.1364C43.3604 5.17485 43.6227 4.70803 43.6227 3.72473Z" fill="#718087"/>
</svg>
